<svg xmlns="http://www.w3.org/2000/svg" width="900" height="560" viewBox="0 0 900 560">
  <defs>
    <linearGradient id="bg" x1="0" y1="0" x2="1" y2="1">
      <stop offset="0" stop-color="#0f172a"/>
      <stop offset="1" stop-color="#14b8a6"/>
    </linearGradient>
    <linearGradient id="device" x1="0" y1="0" x2="1" y2="1">
      <stop offset="0" stop-color="#f8fafc" stop-opacity="0.96"/>
      <stop offset="1" stop-color="#94a3b8" stop-opacity="0.98"/>
    </linearGradient>
    <filter id="shadow" x="-20%" y="-20%" width="140%" height="140%">
      <feDropShadow dx="0" dy="24" stdDeviation="24" flood-color="#020617" flood-opacity="0.38"/>
    </filter>
  </defs>
  <rect width="900" height="560" rx="0" fill="url(#bg)"/>
  <circle cx="760" cy="110" r="130" fill="#ffffff" opacity="0.09"/>
  <circle cx="130" cy="470" r="170" fill="#ffffff" opacity="0.07"/>
  
  <g filter="url(#shadow)">
    <rect x="190" y="235" width="520" height="190" rx="28" fill="#111827"/>
    <rect x="225" y="270" width="36" height="30" rx="7" fill="#e2e8f0" opacity="0.86"/>
    <rect x="275" y="270" width="36" height="30" rx="7" fill="#e2e8f0" opacity="0.86"/>
    <rect x="325" y="270" width="36" height="30" rx="7" fill="#e2e8f0" opacity="0.86"/>
    <rect x="375" y="270" width="36" height="30" rx="7" fill="#e2e8f0" opacity="0.86"/>
    <rect x="425" y="270" width="36" height="30" rx="7" fill="#e2e8f0" opacity="0.86"/>
    <rect x="475" y="270" width="36" height="30" rx="7" fill="#e2e8f0" opacity="0.86"/>
    <rect x="525" y="270" width="36" height="30" rx="7" fill="#e2e8f0" opacity="0.86"/>
    <rect x="575" y="270" width="36" height="30" rx="7" fill="#e2e8f0" opacity="0.86"/>
    <rect x="625" y="270" width="36" height="30" rx="7" fill="#e2e8f0" opacity="0.86"/>
    <rect x="237" y="315" width="36" height="30" rx="7" fill="#e2e8f0" opacity="0.76"/>
    <rect x="287" y="315" width="36" height="30" rx="7" fill="#e2e8f0" opacity="0.76"/>
    <rect x="337" y="315" width="36" height="30" rx="7" fill="#e2e8f0" opacity="0.76"/>
    <rect x="387" y="315" width="36" height="30" rx="7" fill="#e2e8f0" opacity="0.76"/>
    <rect x="437" y="315" width="36" height="30" rx="7" fill="#e2e8f0" opacity="0.76"/>
    <rect x="487" y="315" width="36" height="30" rx="7" fill="#e2e8f0" opacity="0.76"/>
    <rect x="537" y="315" width="36" height="30" rx="7" fill="#e2e8f0" opacity="0.76"/>
    <rect x="587" y="315" width="36" height="30" rx="7" fill="#e2e8f0" opacity="0.76"/>
    <rect x="637" y="315" width="36" height="30" rx="7" fill="#e2e8f0" opacity="0.76"/>
    <rect x="249" y="360" width="36" height="30" rx="7" fill="#e2e8f0" opacity="0.6599999999999999"/>
    <rect x="299" y="360" width="36" height="30" rx="7" fill="#e2e8f0" opacity="0.6599999999999999"/>
    <rect x="349" y="360" width="36" height="30" rx="7" fill="#e2e8f0" opacity="0.6599999999999999"/>
    <rect x="399" y="360" width="36" height="30" rx="7" fill="#e2e8f0" opacity="0.6599999999999999"/>
    <rect x="449" y="360" width="36" height="30" rx="7" fill="#e2e8f0" opacity="0.6599999999999999"/>
    <rect x="499" y="360" width="36" height="30" rx="7" fill="#e2e8f0" opacity="0.6599999999999999"/>
    <rect x="549" y="360" width="36" height="30" rx="7" fill="#e2e8f0" opacity="0.6599999999999999"/>
    <rect x="599" y="360" width="36" height="30" rx="7" fill="#e2e8f0" opacity="0.6599999999999999"/>
    <rect x="649" y="360" width="36" height="30" rx="7" fill="#e2e8f0" opacity="0.6599999999999999"/>
  </g>
  <text x="62" y="94" fill="#ffffff" font-family="Arial, sans-serif" font-size="44" font-weight="800">Logitech MX Keys</text>
  <text x="64" y="140" fill="#dbeafe" font-family="Arial, sans-serif" font-size="24" font-weight="600">Wireless Keyboard</text>
</svg>