<svg xmlns="http://www.w3.org/2000/svg" width="900" height="560" viewBox="0 0 900 560">
  <defs>
    <linearGradient id="bg" x1="0" y1="0" x2="1" y2="1">
      <stop offset="0" stop-color="#1e1b4b"/>
      <stop offset="1" stop-color="#8b5cf6"/>
    </linearGradient>
    <linearGradient id="device" x1="0" y1="0" x2="1" y2="1">
      <stop offset="0" stop-color="#f8fafc" stop-opacity="0.96"/>
      <stop offset="1" stop-color="#94a3b8" stop-opacity="0.98"/>
    </linearGradient>
    <filter id="shadow" x="-20%" y="-20%" width="140%" height="140%">
      <feDropShadow dx="0" dy="24" stdDeviation="24" flood-color="#020617" flood-opacity="0.38"/>
    </filter>
  </defs>
  <rect width="900" height="560" rx="0" fill="url(#bg)"/>
  <circle cx="760" cy="110" r="130" fill="#ffffff" opacity="0.09"/>
  <circle cx="130" cy="470" r="170" fill="#ffffff" opacity="0.07"/>
  
  <g filter="url(#shadow)">
    <path d="M450 170 C540 170 600 245 600 350 C600 455 540 505 450 505 C360 505 300 455 300 350 C300 245 360 170 450 170 Z" fill="url(#device)"/>
    <path d="M450 190 L450 300" stroke="#0f172a" stroke-width="10" stroke-linecap="round" opacity="0.45"/>
    <rect x="433" y="205" width="34" height="80" rx="17" fill="#38bdf8"/>
  </g>
  <text x="62" y="94" fill="#ffffff" font-family="Arial, sans-serif" font-size="44" font-weight="800">MX Master 3S</text>
  <text x="64" y="140" fill="#dbeafe" font-family="Arial, sans-serif" font-size="24" font-weight="600">Wireless Mouse</text>
</svg>