<svg xmlns="http://www.w3.org/2000/svg" width="900" height="560" viewBox="0 0 900 560">
  <defs>
    <linearGradient id="bg" x1="0" y1="0" x2="1" y2="1">
      <stop offset="0" stop-color="#111827"/>
      <stop offset="1" stop-color="#64748b"/>
    </linearGradient>
    <linearGradient id="device" x1="0" y1="0" x2="1" y2="1">
      <stop offset="0" stop-color="#f8fafc" stop-opacity="0.96"/>
      <stop offset="1" stop-color="#94a3b8" stop-opacity="0.98"/>
    </linearGradient>
    <filter id="shadow" x="-20%" y="-20%" width="140%" height="140%">
      <feDropShadow dx="0" dy="24" stdDeviation="24" flood-color="#020617" flood-opacity="0.38"/>
    </filter>
  </defs>
  <rect width="900" height="560" rx="0" fill="url(#bg)"/>
  <circle cx="760" cy="110" r="130" fill="#ffffff" opacity="0.09"/>
  <circle cx="130" cy="470" r="170" fill="#ffffff" opacity="0.07"/>
  
  <g filter="url(#shadow)">
    <path d="M300 335 C300 215 370 155 450 155 C530 155 600 215 600 335" fill="none" stroke="#e2e8f0" stroke-width="42" stroke-linecap="round"/>
    <rect x="245" y="310" width="105" height="155" rx="38" fill="#0f172a"/>
    <rect x="550" y="310" width="105" height="155" rx="38" fill="#0f172a"/>
    <rect x="272" y="338" width="52" height="100" rx="24" fill="#38bdf8"/>
    <rect x="577" y="338" width="52" height="100" rx="24" fill="#38bdf8"/>
  </g>
  <text x="62" y="94" fill="#ffffff" font-family="Arial, sans-serif" font-size="44" font-weight="800">Sony WH-1000XM5</text>
  <text x="64" y="140" fill="#dbeafe" font-family="Arial, sans-serif" font-size="24" font-weight="600">Noise Cancelling</text>
</svg>